<svg id="Layer_1" viewBox="0 0 24 24" xmlns="http://www.w3.org/2000/svg" data-name="Layer 1"><g opacity=".5"><path d="m13.108 1.025-.61-.971c-.945-.149-1.957.13-2.653.839-1.901 1.938-3.845 4.296-3.845 7.092 0 2.967 2.165 5.438 4.998 5.916l1.001.761 1.001-.76c2.834-.478 4.999-2.949 4.999-5.917 0-2.742-1.872-5.065-3.738-6.982l-1.154.022z"/></g><path d="m11 8.985c.553 0 1-.448 1-1 0-2.542 1.177-5.037 2.262-6.982-.035-.036-.072-.074-.108-.11-.453-.462-1.041-.742-1.657-.839-1.199 2.156-2.498 4.949-2.498 7.931 0 .552.447 1 1 1z"/><path d="m23.534 14.71c-.426-.509-1.067-.781-1.726-.716-4.473.417-7.209 2.805-8.809 4.979v-5.07c-.326.055-.658.083-1 .083s-.674-.029-1-.084v5.071c-1.6-2.173-4.335-4.561-8.809-4.979-.658-.061-1.3.208-1.726.716-.42.501-.566 1.171-.395 1.792 2.039 7.338 11.52 7.481 11.923 7.483h.012c.403-.002 9.884-.145 11.923-7.483.172-.621.025-1.291-.395-1.792z"/></svg>